<mxfile host="Electron" agent="Mozilla/5.0 (Windows NT 10.0; Win64; x64) AppleWebKit/537.36 (KHTML, like Gecko) draw.io/26.1.1 Chrome/132.0.6834.210 Electron/34.3.3 Safari/537.36" version="26.1.1">
  <diagram id="R2lEEEUBdFMjLlhIrx00" name="Page-1">
    <mxGraphModel dx="2580" dy="2358" grid="0" gridSize="10" guides="1" tooltips="1" connect="1" arrows="1" fold="1" page="1" pageScale="1" pageWidth="850" pageHeight="1100" math="0" shadow="0" extFonts="Permanent Marker^https://fonts.googleapis.com/css?family=Permanent+Marker">
      <root>
        <mxCell id="0" />
        <mxCell id="1" parent="0" />
        <mxCell id="UCniVklKE88xbIbKEdX8-1" value="users" style="shape=table;startSize=30;container=1;collapsible=1;childLayout=tableLayout;fixedRows=1;rowLines=0;fontStyle=1;align=center;resizeLast=1;html=1;" parent="1" vertex="1">
          <mxGeometry x="16" y="16" width="353" height="285" as="geometry" />
        </mxCell>
        <mxCell id="UCniVklKE88xbIbKEdX8-2" value="" style="shape=tableRow;horizontal=0;startSize=0;swimlaneHead=0;swimlaneBody=0;fillColor=none;collapsible=0;dropTarget=0;points=[[0,0.5],[1,0.5]];portConstraint=eastwest;top=0;left=0;right=0;bottom=1;" parent="UCniVklKE88xbIbKEdX8-1" vertex="1">
          <mxGeometry y="30" width="353" height="30" as="geometry" />
        </mxCell>
        <mxCell id="UCniVklKE88xbIbKEdX8-3" value="PK" style="shape=partialRectangle;connectable=0;fillColor=none;top=0;left=0;bottom=0;right=0;fontStyle=1;overflow=hidden;whiteSpace=wrap;html=1;" parent="UCniVklKE88xbIbKEdX8-2" vertex="1">
          <mxGeometry width="30" height="30" as="geometry">
            <mxRectangle width="30" height="30" as="alternateBounds" />
          </mxGeometry>
        </mxCell>
        <mxCell id="UCniVklKE88xbIbKEdX8-4" value="user_id UUID" style="shape=partialRectangle;connectable=0;fillColor=none;top=0;left=0;bottom=0;right=0;align=left;spacingLeft=6;fontStyle=5;overflow=hidden;whiteSpace=wrap;html=1;" parent="UCniVklKE88xbIbKEdX8-2" vertex="1">
          <mxGeometry x="30" width="323" height="30" as="geometry">
            <mxRectangle width="323" height="30" as="alternateBounds" />
          </mxGeometry>
        </mxCell>
        <mxCell id="UCniVklKE88xbIbKEdX8-5" value="" style="shape=tableRow;horizontal=0;startSize=0;swimlaneHead=0;swimlaneBody=0;fillColor=none;collapsible=0;dropTarget=0;points=[[0,0.5],[1,0.5]];portConstraint=eastwest;top=0;left=0;right=0;bottom=0;" parent="UCniVklKE88xbIbKEdX8-1" vertex="1">
          <mxGeometry y="60" width="353" height="30" as="geometry" />
        </mxCell>
        <mxCell id="UCniVklKE88xbIbKEdX8-6" value="" style="shape=partialRectangle;connectable=0;fillColor=none;top=0;left=0;bottom=0;right=0;editable=1;overflow=hidden;whiteSpace=wrap;html=1;" parent="UCniVklKE88xbIbKEdX8-5" vertex="1">
          <mxGeometry width="30" height="30" as="geometry">
            <mxRectangle width="30" height="30" as="alternateBounds" />
          </mxGeometry>
        </mxCell>
        <mxCell id="UCniVklKE88xbIbKEdX8-7" value="username varchar(50) UNIQUE" style="shape=partialRectangle;connectable=0;fillColor=none;top=0;left=0;bottom=0;right=0;align=left;spacingLeft=6;overflow=hidden;whiteSpace=wrap;html=1;" parent="UCniVklKE88xbIbKEdX8-5" vertex="1">
          <mxGeometry x="30" width="323" height="30" as="geometry">
            <mxRectangle width="323" height="30" as="alternateBounds" />
          </mxGeometry>
        </mxCell>
        <mxCell id="UCniVklKE88xbIbKEdX8-8" value="" style="shape=tableRow;horizontal=0;startSize=0;swimlaneHead=0;swimlaneBody=0;fillColor=none;collapsible=0;dropTarget=0;points=[[0,0.5],[1,0.5]];portConstraint=eastwest;top=0;left=0;right=0;bottom=0;" parent="UCniVklKE88xbIbKEdX8-1" vertex="1">
          <mxGeometry y="90" width="353" height="30" as="geometry" />
        </mxCell>
        <mxCell id="UCniVklKE88xbIbKEdX8-9" value="" style="shape=partialRectangle;connectable=0;fillColor=none;top=0;left=0;bottom=0;right=0;editable=1;overflow=hidden;whiteSpace=wrap;html=1;" parent="UCniVklKE88xbIbKEdX8-8" vertex="1">
          <mxGeometry width="30" height="30" as="geometry">
            <mxRectangle width="30" height="30" as="alternateBounds" />
          </mxGeometry>
        </mxCell>
        <mxCell id="UCniVklKE88xbIbKEdX8-10" value="password varchar(255) HASHED" style="shape=partialRectangle;connectable=0;fillColor=none;top=0;left=0;bottom=0;right=0;align=left;spacingLeft=6;overflow=hidden;whiteSpace=wrap;html=1;" parent="UCniVklKE88xbIbKEdX8-8" vertex="1">
          <mxGeometry x="30" width="323" height="30" as="geometry">
            <mxRectangle width="323" height="30" as="alternateBounds" />
          </mxGeometry>
        </mxCell>
        <mxCell id="UCniVklKE88xbIbKEdX8-11" value="" style="shape=tableRow;horizontal=0;startSize=0;swimlaneHead=0;swimlaneBody=0;fillColor=none;collapsible=0;dropTarget=0;points=[[0,0.5],[1,0.5]];portConstraint=eastwest;top=0;left=0;right=0;bottom=0;" parent="UCniVklKE88xbIbKEdX8-1" vertex="1">
          <mxGeometry y="120" width="353" height="30" as="geometry" />
        </mxCell>
        <mxCell id="UCniVklKE88xbIbKEdX8-12" value="" style="shape=partialRectangle;connectable=0;fillColor=none;top=0;left=0;bottom=0;right=0;editable=1;overflow=hidden;whiteSpace=wrap;html=1;" parent="UCniVklKE88xbIbKEdX8-11" vertex="1">
          <mxGeometry width="30" height="30" as="geometry">
            <mxRectangle width="30" height="30" as="alternateBounds" />
          </mxGeometry>
        </mxCell>
        <mxCell id="UCniVklKE88xbIbKEdX8-13" value="email varchar(100) UNIQUE" style="shape=partialRectangle;connectable=0;fillColor=none;top=0;left=0;bottom=0;right=0;align=left;spacingLeft=6;overflow=hidden;whiteSpace=wrap;html=1;" parent="UCniVklKE88xbIbKEdX8-11" vertex="1">
          <mxGeometry x="30" width="323" height="30" as="geometry">
            <mxRectangle width="323" height="30" as="alternateBounds" />
          </mxGeometry>
        </mxCell>
        <mxCell id="2yAPakeh3w6dgKdzW8MD-1" style="shape=tableRow;horizontal=0;startSize=0;swimlaneHead=0;swimlaneBody=0;fillColor=none;collapsible=0;dropTarget=0;points=[[0,0.5],[1,0.5]];portConstraint=eastwest;top=0;left=0;right=0;bottom=0;" vertex="1" parent="UCniVklKE88xbIbKEdX8-1">
          <mxGeometry y="150" width="353" height="30" as="geometry" />
        </mxCell>
        <mxCell id="2yAPakeh3w6dgKdzW8MD-2" style="shape=partialRectangle;connectable=0;fillColor=none;top=0;left=0;bottom=0;right=0;editable=1;overflow=hidden;whiteSpace=wrap;html=1;" vertex="1" parent="2yAPakeh3w6dgKdzW8MD-1">
          <mxGeometry width="30" height="30" as="geometry">
            <mxRectangle width="30" height="30" as="alternateBounds" />
          </mxGeometry>
        </mxCell>
        <mxCell id="2yAPakeh3w6dgKdzW8MD-3" value="google_id varchar(255) UNIQUE" style="shape=partialRectangle;connectable=0;fillColor=none;top=0;left=0;bottom=0;right=0;align=left;spacingLeft=6;overflow=hidden;whiteSpace=wrap;html=1;" vertex="1" parent="2yAPakeh3w6dgKdzW8MD-1">
          <mxGeometry x="30" width="323" height="30" as="geometry">
            <mxRectangle width="323" height="30" as="alternateBounds" />
          </mxGeometry>
        </mxCell>
        <mxCell id="UCniVklKE88xbIbKEdX8-27" style="shape=tableRow;horizontal=0;startSize=0;swimlaneHead=0;swimlaneBody=0;fillColor=none;collapsible=0;dropTarget=0;points=[[0,0.5],[1,0.5]];portConstraint=eastwest;top=0;left=0;right=0;bottom=0;" parent="UCniVklKE88xbIbKEdX8-1" vertex="1">
          <mxGeometry y="180" width="353" height="30" as="geometry" />
        </mxCell>
        <mxCell id="UCniVklKE88xbIbKEdX8-28" style="shape=partialRectangle;connectable=0;fillColor=none;top=0;left=0;bottom=0;right=0;editable=1;overflow=hidden;whiteSpace=wrap;html=1;" parent="UCniVklKE88xbIbKEdX8-27" vertex="1">
          <mxGeometry width="30" height="30" as="geometry">
            <mxRectangle width="30" height="30" as="alternateBounds" />
          </mxGeometry>
        </mxCell>
        <mxCell id="UCniVklKE88xbIbKEdX8-29" value="role varcahr(50) default &#39;user&#39; check in (&#39;user&#39;,&#39;admin&#39;)" style="shape=partialRectangle;connectable=0;fillColor=none;top=0;left=0;bottom=0;right=0;align=left;spacingLeft=6;overflow=hidden;whiteSpace=wrap;html=1;" parent="UCniVklKE88xbIbKEdX8-27" vertex="1">
          <mxGeometry x="30" width="323" height="30" as="geometry">
            <mxRectangle width="323" height="30" as="alternateBounds" />
          </mxGeometry>
        </mxCell>
        <mxCell id="UCniVklKE88xbIbKEdX8-18" style="shape=tableRow;horizontal=0;startSize=0;swimlaneHead=0;swimlaneBody=0;fillColor=none;collapsible=0;dropTarget=0;points=[[0,0.5],[1,0.5]];portConstraint=eastwest;top=0;left=0;right=0;bottom=0;" parent="UCniVklKE88xbIbKEdX8-1" vertex="1">
          <mxGeometry y="210" width="353" height="33" as="geometry" />
        </mxCell>
        <mxCell id="UCniVklKE88xbIbKEdX8-19" style="shape=partialRectangle;connectable=0;fillColor=none;top=0;left=0;bottom=0;right=0;editable=1;overflow=hidden;whiteSpace=wrap;html=1;" parent="UCniVklKE88xbIbKEdX8-18" vertex="1">
          <mxGeometry width="30" height="33" as="geometry">
            <mxRectangle width="30" height="33" as="alternateBounds" />
          </mxGeometry>
        </mxCell>
        <mxCell id="UCniVklKE88xbIbKEdX8-20" value="created_at timestamp DEFAULT CURRENT_TIMESTAMP" style="shape=partialRectangle;connectable=0;fillColor=none;top=0;left=0;bottom=0;right=0;align=left;spacingLeft=6;overflow=hidden;whiteSpace=wrap;html=1;" parent="UCniVklKE88xbIbKEdX8-18" vertex="1">
          <mxGeometry x="30" width="323" height="33" as="geometry">
            <mxRectangle width="323" height="33" as="alternateBounds" />
          </mxGeometry>
        </mxCell>
        <mxCell id="UCniVklKE88xbIbKEdX8-24" style="shape=tableRow;horizontal=0;startSize=0;swimlaneHead=0;swimlaneBody=0;fillColor=none;collapsible=0;dropTarget=0;points=[[0,0.5],[1,0.5]];portConstraint=eastwest;top=0;left=0;right=0;bottom=0;" parent="UCniVklKE88xbIbKEdX8-1" vertex="1">
          <mxGeometry y="243" width="353" height="30" as="geometry" />
        </mxCell>
        <mxCell id="UCniVklKE88xbIbKEdX8-25" style="shape=partialRectangle;connectable=0;fillColor=none;top=0;left=0;bottom=0;right=0;editable=1;overflow=hidden;whiteSpace=wrap;html=1;" parent="UCniVklKE88xbIbKEdX8-24" vertex="1">
          <mxGeometry width="30" height="30" as="geometry">
            <mxRectangle width="30" height="30" as="alternateBounds" />
          </mxGeometry>
        </mxCell>
        <mxCell id="UCniVklKE88xbIbKEdX8-26" value="updated_at timestamp DEFAULT CURRENT_TIMESTAMP ON UPDATE&amp;nbsp;" style="shape=partialRectangle;connectable=0;fillColor=none;top=0;left=0;bottom=0;right=0;align=left;spacingLeft=6;overflow=hidden;whiteSpace=wrap;html=1;" parent="UCniVklKE88xbIbKEdX8-24" vertex="1">
          <mxGeometry x="30" width="323" height="30" as="geometry">
            <mxRectangle width="323" height="30" as="alternateBounds" />
          </mxGeometry>
        </mxCell>
        <mxCell id="UCniVklKE88xbIbKEdX8-30" value="stocks" style="shape=table;startSize=30;container=1;collapsible=1;childLayout=tableLayout;fixedRows=1;rowLines=0;fontStyle=1;align=center;resizeLast=1;html=1;" parent="1" vertex="1">
          <mxGeometry x="28" y="481" width="317" height="224" as="geometry" />
        </mxCell>
        <mxCell id="UCniVklKE88xbIbKEdX8-31" value="" style="shape=tableRow;horizontal=0;startSize=0;swimlaneHead=0;swimlaneBody=0;fillColor=none;collapsible=0;dropTarget=0;points=[[0,0.5],[1,0.5]];portConstraint=eastwest;top=0;left=0;right=0;bottom=1;" parent="UCniVklKE88xbIbKEdX8-30" vertex="1">
          <mxGeometry y="30" width="317" height="30" as="geometry" />
        </mxCell>
        <mxCell id="UCniVklKE88xbIbKEdX8-32" value="PK" style="shape=partialRectangle;connectable=0;fillColor=none;top=0;left=0;bottom=0;right=0;fontStyle=1;overflow=hidden;whiteSpace=wrap;html=1;" parent="UCniVklKE88xbIbKEdX8-31" vertex="1">
          <mxGeometry width="30" height="30" as="geometry">
            <mxRectangle width="30" height="30" as="alternateBounds" />
          </mxGeometry>
        </mxCell>
        <mxCell id="UCniVklKE88xbIbKEdX8-33" value="stock_id int AUTO_INCREMENT" style="shape=partialRectangle;connectable=0;fillColor=none;top=0;left=0;bottom=0;right=0;align=left;spacingLeft=6;fontStyle=5;overflow=hidden;whiteSpace=wrap;html=1;" parent="UCniVklKE88xbIbKEdX8-31" vertex="1">
          <mxGeometry x="30" width="287" height="30" as="geometry">
            <mxRectangle width="287" height="30" as="alternateBounds" />
          </mxGeometry>
        </mxCell>
        <mxCell id="UCniVklKE88xbIbKEdX8-34" value="" style="shape=tableRow;horizontal=0;startSize=0;swimlaneHead=0;swimlaneBody=0;fillColor=none;collapsible=0;dropTarget=0;points=[[0,0.5],[1,0.5]];portConstraint=eastwest;top=0;left=0;right=0;bottom=0;" parent="UCniVklKE88xbIbKEdX8-30" vertex="1">
          <mxGeometry y="60" width="317" height="30" as="geometry" />
        </mxCell>
        <mxCell id="UCniVklKE88xbIbKEdX8-35" value="" style="shape=partialRectangle;connectable=0;fillColor=none;top=0;left=0;bottom=0;right=0;editable=1;overflow=hidden;whiteSpace=wrap;html=1;" parent="UCniVklKE88xbIbKEdX8-34" vertex="1">
          <mxGeometry width="30" height="30" as="geometry">
            <mxRectangle width="30" height="30" as="alternateBounds" />
          </mxGeometry>
        </mxCell>
        <mxCell id="UCniVklKE88xbIbKEdX8-36" value="sympol varchar(10) UNIQUE" style="shape=partialRectangle;connectable=0;fillColor=none;top=0;left=0;bottom=0;right=0;align=left;spacingLeft=6;overflow=hidden;whiteSpace=wrap;html=1;" parent="UCniVklKE88xbIbKEdX8-34" vertex="1">
          <mxGeometry x="30" width="287" height="30" as="geometry">
            <mxRectangle width="287" height="30" as="alternateBounds" />
          </mxGeometry>
        </mxCell>
        <mxCell id="UCniVklKE88xbIbKEdX8-37" value="" style="shape=tableRow;horizontal=0;startSize=0;swimlaneHead=0;swimlaneBody=0;fillColor=none;collapsible=0;dropTarget=0;points=[[0,0.5],[1,0.5]];portConstraint=eastwest;top=0;left=0;right=0;bottom=0;" parent="UCniVklKE88xbIbKEdX8-30" vertex="1">
          <mxGeometry y="90" width="317" height="30" as="geometry" />
        </mxCell>
        <mxCell id="UCniVklKE88xbIbKEdX8-38" value="" style="shape=partialRectangle;connectable=0;fillColor=none;top=0;left=0;bottom=0;right=0;editable=1;overflow=hidden;whiteSpace=wrap;html=1;" parent="UCniVklKE88xbIbKEdX8-37" vertex="1">
          <mxGeometry width="30" height="30" as="geometry">
            <mxRectangle width="30" height="30" as="alternateBounds" />
          </mxGeometry>
        </mxCell>
        <mxCell id="UCniVklKE88xbIbKEdX8-39" value="company_name varchar(100)" style="shape=partialRectangle;connectable=0;fillColor=none;top=0;left=0;bottom=0;right=0;align=left;spacingLeft=6;overflow=hidden;whiteSpace=wrap;html=1;" parent="UCniVklKE88xbIbKEdX8-37" vertex="1">
          <mxGeometry x="30" width="287" height="30" as="geometry">
            <mxRectangle width="287" height="30" as="alternateBounds" />
          </mxGeometry>
        </mxCell>
        <mxCell id="UCniVklKE88xbIbKEdX8-40" value="" style="shape=tableRow;horizontal=0;startSize=0;swimlaneHead=0;swimlaneBody=0;fillColor=none;collapsible=0;dropTarget=0;points=[[0,0.5],[1,0.5]];portConstraint=eastwest;top=0;left=0;right=0;bottom=0;" parent="UCniVklKE88xbIbKEdX8-30" vertex="1">
          <mxGeometry y="120" width="317" height="30" as="geometry" />
        </mxCell>
        <mxCell id="UCniVklKE88xbIbKEdX8-41" value="" style="shape=partialRectangle;connectable=0;fillColor=none;top=0;left=0;bottom=0;right=0;editable=1;overflow=hidden;whiteSpace=wrap;html=1;" parent="UCniVklKE88xbIbKEdX8-40" vertex="1">
          <mxGeometry width="30" height="30" as="geometry">
            <mxRectangle width="30" height="30" as="alternateBounds" />
          </mxGeometry>
        </mxCell>
        <mxCell id="UCniVklKE88xbIbKEdX8-42" value="industry varchar(50)" style="shape=partialRectangle;connectable=0;fillColor=none;top=0;left=0;bottom=0;right=0;align=left;spacingLeft=6;overflow=hidden;whiteSpace=wrap;html=1;" parent="UCniVklKE88xbIbKEdX8-40" vertex="1">
          <mxGeometry x="30" width="287" height="30" as="geometry">
            <mxRectangle width="287" height="30" as="alternateBounds" />
          </mxGeometry>
        </mxCell>
        <mxCell id="UCniVklKE88xbIbKEdX8-46" style="shape=tableRow;horizontal=0;startSize=0;swimlaneHead=0;swimlaneBody=0;fillColor=none;collapsible=0;dropTarget=0;points=[[0,0.5],[1,0.5]];portConstraint=eastwest;top=0;left=0;right=0;bottom=0;" parent="UCniVklKE88xbIbKEdX8-30" vertex="1">
          <mxGeometry y="150" width="317" height="30" as="geometry" />
        </mxCell>
        <mxCell id="UCniVklKE88xbIbKEdX8-47" style="shape=partialRectangle;connectable=0;fillColor=none;top=0;left=0;bottom=0;right=0;editable=1;overflow=hidden;whiteSpace=wrap;html=1;" parent="UCniVklKE88xbIbKEdX8-46" vertex="1">
          <mxGeometry width="30" height="30" as="geometry">
            <mxRectangle width="30" height="30" as="alternateBounds" />
          </mxGeometry>
        </mxCell>
        <mxCell id="UCniVklKE88xbIbKEdX8-48" value="market_cap decimal(15,2)" style="shape=partialRectangle;connectable=0;fillColor=none;top=0;left=0;bottom=0;right=0;align=left;spacingLeft=6;overflow=hidden;whiteSpace=wrap;html=1;" parent="UCniVklKE88xbIbKEdX8-46" vertex="1">
          <mxGeometry x="30" width="287" height="30" as="geometry">
            <mxRectangle width="287" height="30" as="alternateBounds" />
          </mxGeometry>
        </mxCell>
        <mxCell id="UCniVklKE88xbIbKEdX8-43" style="shape=tableRow;horizontal=0;startSize=0;swimlaneHead=0;swimlaneBody=0;fillColor=none;collapsible=0;dropTarget=0;points=[[0,0.5],[1,0.5]];portConstraint=eastwest;top=0;left=0;right=0;bottom=0;" parent="UCniVklKE88xbIbKEdX8-30" vertex="1">
          <mxGeometry y="180" width="317" height="30" as="geometry" />
        </mxCell>
        <mxCell id="UCniVklKE88xbIbKEdX8-44" style="shape=partialRectangle;connectable=0;fillColor=none;top=0;left=0;bottom=0;right=0;editable=1;overflow=hidden;whiteSpace=wrap;html=1;" parent="UCniVklKE88xbIbKEdX8-43" vertex="1">
          <mxGeometry width="30" height="30" as="geometry">
            <mxRectangle width="30" height="30" as="alternateBounds" />
          </mxGeometry>
        </mxCell>
        <mxCell id="UCniVklKE88xbIbKEdX8-45" value="description text" style="shape=partialRectangle;connectable=0;fillColor=none;top=0;left=0;bottom=0;right=0;align=left;spacingLeft=6;overflow=hidden;whiteSpace=wrap;html=1;" parent="UCniVklKE88xbIbKEdX8-43" vertex="1">
          <mxGeometry x="30" width="287" height="30" as="geometry">
            <mxRectangle width="287" height="30" as="alternateBounds" />
          </mxGeometry>
        </mxCell>
        <mxCell id="UCniVklKE88xbIbKEdX8-68" value="" style="edgeStyle=entityRelationEdgeStyle;fontSize=12;html=1;endArrow=ERoneToMany;rounded=0;exitX=1;exitY=0.5;exitDx=0;exitDy=0;entryX=0;entryY=0.5;entryDx=0;entryDy=0;" parent="1" source="UCniVklKE88xbIbKEdX8-31" target="UCniVklKE88xbIbKEdX8-53" edge="1">
          <mxGeometry width="100" height="100" relative="1" as="geometry">
            <mxPoint x="373" y="672" as="sourcePoint" />
            <mxPoint x="473" y="572" as="targetPoint" />
          </mxGeometry>
        </mxCell>
        <mxCell id="UCniVklKE88xbIbKEdX8-79" value="" style="group" parent="1" vertex="1" connectable="0">
          <mxGeometry x="463" y="575" width="317" height="301" as="geometry" />
        </mxCell>
        <mxCell id="UCniVklKE88xbIbKEdX8-49" value="stockPrices" style="shape=table;startSize=30;container=1;collapsible=1;childLayout=tableLayout;fixedRows=1;rowLines=0;fontStyle=1;align=center;resizeLast=1;html=1;" parent="UCniVklKE88xbIbKEdX8-79" vertex="1">
          <mxGeometry width="317" height="298" as="geometry" />
        </mxCell>
        <mxCell id="UCniVklKE88xbIbKEdX8-50" value="" style="shape=tableRow;horizontal=0;startSize=0;swimlaneHead=0;swimlaneBody=0;fillColor=none;collapsible=0;dropTarget=0;points=[[0,0.5],[1,0.5]];portConstraint=eastwest;top=0;left=0;right=0;bottom=1;" parent="UCniVklKE88xbIbKEdX8-49" vertex="1">
          <mxGeometry y="30" width="317" height="30" as="geometry" />
        </mxCell>
        <mxCell id="UCniVklKE88xbIbKEdX8-51" value="PK" style="shape=partialRectangle;connectable=0;fillColor=none;top=0;left=0;bottom=0;right=0;fontStyle=1;overflow=hidden;whiteSpace=wrap;html=1;" parent="UCniVklKE88xbIbKEdX8-50" vertex="1">
          <mxGeometry width="30" height="30" as="geometry">
            <mxRectangle width="30" height="30" as="alternateBounds" />
          </mxGeometry>
        </mxCell>
        <mxCell id="UCniVklKE88xbIbKEdX8-52" value="stockprice_id int AUTO_INCREMENT" style="shape=partialRectangle;connectable=0;fillColor=none;top=0;left=0;bottom=0;right=0;align=left;spacingLeft=6;fontStyle=5;overflow=hidden;whiteSpace=wrap;html=1;" parent="UCniVklKE88xbIbKEdX8-50" vertex="1">
          <mxGeometry x="30" width="287" height="30" as="geometry">
            <mxRectangle width="287" height="30" as="alternateBounds" />
          </mxGeometry>
        </mxCell>
        <mxCell id="UCniVklKE88xbIbKEdX8-53" value="" style="shape=tableRow;horizontal=0;startSize=0;swimlaneHead=0;swimlaneBody=0;fillColor=none;collapsible=0;dropTarget=0;points=[[0,0.5],[1,0.5]];portConstraint=eastwest;top=0;left=0;right=0;bottom=0;" parent="UCniVklKE88xbIbKEdX8-49" vertex="1">
          <mxGeometry y="60" width="317" height="30" as="geometry" />
        </mxCell>
        <mxCell id="UCniVklKE88xbIbKEdX8-54" value="FK1" style="shape=partialRectangle;connectable=0;fillColor=none;top=0;left=0;bottom=0;right=0;editable=1;overflow=hidden;whiteSpace=wrap;html=1;" parent="UCniVklKE88xbIbKEdX8-53" vertex="1">
          <mxGeometry width="30" height="30" as="geometry">
            <mxRectangle width="30" height="30" as="alternateBounds" />
          </mxGeometry>
        </mxCell>
        <mxCell id="UCniVklKE88xbIbKEdX8-55" value="stock_id int" style="shape=partialRectangle;connectable=0;fillColor=none;top=0;left=0;bottom=0;right=0;align=left;spacingLeft=6;overflow=hidden;whiteSpace=wrap;html=1;" parent="UCniVklKE88xbIbKEdX8-53" vertex="1">
          <mxGeometry x="30" width="287" height="30" as="geometry">
            <mxRectangle width="287" height="30" as="alternateBounds" />
          </mxGeometry>
        </mxCell>
        <mxCell id="UCniVklKE88xbIbKEdX8-56" value="" style="shape=tableRow;horizontal=0;startSize=0;swimlaneHead=0;swimlaneBody=0;fillColor=none;collapsible=0;dropTarget=0;points=[[0,0.5],[1,0.5]];portConstraint=eastwest;top=0;left=0;right=0;bottom=0;" parent="UCniVklKE88xbIbKEdX8-49" vertex="1">
          <mxGeometry y="90" width="317" height="30" as="geometry" />
        </mxCell>
        <mxCell id="UCniVklKE88xbIbKEdX8-57" value="" style="shape=partialRectangle;connectable=0;fillColor=none;top=0;left=0;bottom=0;right=0;editable=1;overflow=hidden;whiteSpace=wrap;html=1;" parent="UCniVklKE88xbIbKEdX8-56" vertex="1">
          <mxGeometry width="30" height="30" as="geometry">
            <mxRectangle width="30" height="30" as="alternateBounds" />
          </mxGeometry>
        </mxCell>
        <mxCell id="UCniVklKE88xbIbKEdX8-58" value="date date" style="shape=partialRectangle;connectable=0;fillColor=none;top=0;left=0;bottom=0;right=0;align=left;spacingLeft=6;overflow=hidden;whiteSpace=wrap;html=1;" parent="UCniVklKE88xbIbKEdX8-56" vertex="1">
          <mxGeometry x="30" width="287" height="30" as="geometry">
            <mxRectangle width="287" height="30" as="alternateBounds" />
          </mxGeometry>
        </mxCell>
        <mxCell id="UCniVklKE88xbIbKEdX8-59" value="" style="shape=tableRow;horizontal=0;startSize=0;swimlaneHead=0;swimlaneBody=0;fillColor=none;collapsible=0;dropTarget=0;points=[[0,0.5],[1,0.5]];portConstraint=eastwest;top=0;left=0;right=0;bottom=0;" parent="UCniVklKE88xbIbKEdX8-49" vertex="1">
          <mxGeometry y="120" width="317" height="30" as="geometry" />
        </mxCell>
        <mxCell id="UCniVklKE88xbIbKEdX8-60" value="" style="shape=partialRectangle;connectable=0;fillColor=none;top=0;left=0;bottom=0;right=0;editable=1;overflow=hidden;whiteSpace=wrap;html=1;" parent="UCniVklKE88xbIbKEdX8-59" vertex="1">
          <mxGeometry width="30" height="30" as="geometry">
            <mxRectangle width="30" height="30" as="alternateBounds" />
          </mxGeometry>
        </mxCell>
        <mxCell id="UCniVklKE88xbIbKEdX8-61" value="open_price decimal(10,2)" style="shape=partialRectangle;connectable=0;fillColor=none;top=0;left=0;bottom=0;right=0;align=left;spacingLeft=6;overflow=hidden;whiteSpace=wrap;html=1;" parent="UCniVklKE88xbIbKEdX8-59" vertex="1">
          <mxGeometry x="30" width="287" height="30" as="geometry">
            <mxRectangle width="287" height="30" as="alternateBounds" />
          </mxGeometry>
        </mxCell>
        <mxCell id="UCniVklKE88xbIbKEdX8-62" style="shape=tableRow;horizontal=0;startSize=0;swimlaneHead=0;swimlaneBody=0;fillColor=none;collapsible=0;dropTarget=0;points=[[0,0.5],[1,0.5]];portConstraint=eastwest;top=0;left=0;right=0;bottom=0;" parent="UCniVklKE88xbIbKEdX8-49" vertex="1">
          <mxGeometry y="150" width="317" height="30" as="geometry" />
        </mxCell>
        <mxCell id="UCniVklKE88xbIbKEdX8-63" style="shape=partialRectangle;connectable=0;fillColor=none;top=0;left=0;bottom=0;right=0;editable=1;overflow=hidden;whiteSpace=wrap;html=1;" parent="UCniVklKE88xbIbKEdX8-62" vertex="1">
          <mxGeometry width="30" height="30" as="geometry">
            <mxRectangle width="30" height="30" as="alternateBounds" />
          </mxGeometry>
        </mxCell>
        <mxCell id="UCniVklKE88xbIbKEdX8-64" value="close_price decimal(10,2)" style="shape=partialRectangle;connectable=0;fillColor=none;top=0;left=0;bottom=0;right=0;align=left;spacingLeft=6;overflow=hidden;whiteSpace=wrap;html=1;" parent="UCniVklKE88xbIbKEdX8-62" vertex="1">
          <mxGeometry x="30" width="287" height="30" as="geometry">
            <mxRectangle width="287" height="30" as="alternateBounds" />
          </mxGeometry>
        </mxCell>
        <mxCell id="UCniVklKE88xbIbKEdX8-65" style="shape=tableRow;horizontal=0;startSize=0;swimlaneHead=0;swimlaneBody=0;fillColor=none;collapsible=0;dropTarget=0;points=[[0,0.5],[1,0.5]];portConstraint=eastwest;top=0;left=0;right=0;bottom=0;" parent="UCniVklKE88xbIbKEdX8-49" vertex="1">
          <mxGeometry y="180" width="317" height="30" as="geometry" />
        </mxCell>
        <mxCell id="UCniVklKE88xbIbKEdX8-66" style="shape=partialRectangle;connectable=0;fillColor=none;top=0;left=0;bottom=0;right=0;editable=1;overflow=hidden;whiteSpace=wrap;html=1;" parent="UCniVklKE88xbIbKEdX8-65" vertex="1">
          <mxGeometry width="30" height="30" as="geometry">
            <mxRectangle width="30" height="30" as="alternateBounds" />
          </mxGeometry>
        </mxCell>
        <mxCell id="UCniVklKE88xbIbKEdX8-67" value="high_price deciaml(10,2)" style="shape=partialRectangle;connectable=0;fillColor=none;top=0;left=0;bottom=0;right=0;align=left;spacingLeft=6;overflow=hidden;whiteSpace=wrap;html=1;" parent="UCniVklKE88xbIbKEdX8-65" vertex="1">
          <mxGeometry x="30" width="287" height="30" as="geometry">
            <mxRectangle width="287" height="30" as="alternateBounds" />
          </mxGeometry>
        </mxCell>
        <mxCell id="UCniVklKE88xbIbKEdX8-72" style="shape=tableRow;horizontal=0;startSize=0;swimlaneHead=0;swimlaneBody=0;fillColor=none;collapsible=0;dropTarget=0;points=[[0,0.5],[1,0.5]];portConstraint=eastwest;top=0;left=0;right=0;bottom=0;" parent="UCniVklKE88xbIbKEdX8-49" vertex="1">
          <mxGeometry y="210" width="317" height="30" as="geometry" />
        </mxCell>
        <mxCell id="UCniVklKE88xbIbKEdX8-73" style="shape=partialRectangle;connectable=0;fillColor=none;top=0;left=0;bottom=0;right=0;editable=1;overflow=hidden;whiteSpace=wrap;html=1;" parent="UCniVklKE88xbIbKEdX8-72" vertex="1">
          <mxGeometry width="30" height="30" as="geometry">
            <mxRectangle width="30" height="30" as="alternateBounds" />
          </mxGeometry>
        </mxCell>
        <mxCell id="UCniVklKE88xbIbKEdX8-74" value="low_price decimal(10,2)" style="shape=partialRectangle;connectable=0;fillColor=none;top=0;left=0;bottom=0;right=0;align=left;spacingLeft=6;overflow=hidden;whiteSpace=wrap;html=1;" parent="UCniVklKE88xbIbKEdX8-72" vertex="1">
          <mxGeometry x="30" width="287" height="30" as="geometry">
            <mxRectangle width="287" height="30" as="alternateBounds" />
          </mxGeometry>
        </mxCell>
        <mxCell id="UCniVklKE88xbIbKEdX8-69" style="shape=tableRow;horizontal=0;startSize=0;swimlaneHead=0;swimlaneBody=0;fillColor=none;collapsible=0;dropTarget=0;points=[[0,0.5],[1,0.5]];portConstraint=eastwest;top=0;left=0;right=0;bottom=0;" parent="UCniVklKE88xbIbKEdX8-49" vertex="1">
          <mxGeometry y="240" width="317" height="30" as="geometry" />
        </mxCell>
        <mxCell id="UCniVklKE88xbIbKEdX8-70" style="shape=partialRectangle;connectable=0;fillColor=none;top=0;left=0;bottom=0;right=0;editable=1;overflow=hidden;whiteSpace=wrap;html=1;" parent="UCniVklKE88xbIbKEdX8-69" vertex="1">
          <mxGeometry width="30" height="30" as="geometry">
            <mxRectangle width="30" height="30" as="alternateBounds" />
          </mxGeometry>
        </mxCell>
        <mxCell id="UCniVklKE88xbIbKEdX8-71" value="volume int" style="shape=partialRectangle;connectable=0;fillColor=none;top=0;left=0;bottom=0;right=0;align=left;spacingLeft=6;overflow=hidden;whiteSpace=wrap;html=1;" parent="UCniVklKE88xbIbKEdX8-69" vertex="1">
          <mxGeometry x="30" width="287" height="30" as="geometry">
            <mxRectangle width="287" height="30" as="alternateBounds" />
          </mxGeometry>
        </mxCell>
        <mxCell id="UCniVklKE88xbIbKEdX8-78" value="UNIQUE KEY (stock_id, date)" style="text;strokeColor=none;fillColor=none;spacingLeft=4;spacingRight=4;overflow=hidden;rotatable=0;points=[[0,0.5],[1,0.5]];portConstraint=eastwest;fontSize=12;whiteSpace=wrap;html=1;" parent="UCniVklKE88xbIbKEdX8-79" vertex="1">
          <mxGeometry x="22" y="272" width="266" height="29" as="geometry" />
        </mxCell>
        <mxCell id="UCniVklKE88xbIbKEdX8-81" value="portfolios" style="shape=table;startSize=30;container=1;collapsible=1;childLayout=tableLayout;fixedRows=1;rowLines=0;fontStyle=1;align=center;resizeLast=1;html=1;" parent="1" vertex="1">
          <mxGeometry x="442" y="16" width="463" height="201" as="geometry" />
        </mxCell>
        <mxCell id="UCniVklKE88xbIbKEdX8-82" value="" style="shape=tableRow;horizontal=0;startSize=0;swimlaneHead=0;swimlaneBody=0;fillColor=none;collapsible=0;dropTarget=0;points=[[0,0.5],[1,0.5]];portConstraint=eastwest;top=0;left=0;right=0;bottom=1;" parent="UCniVklKE88xbIbKEdX8-81" vertex="1">
          <mxGeometry y="30" width="463" height="30" as="geometry" />
        </mxCell>
        <mxCell id="UCniVklKE88xbIbKEdX8-83" value="PK" style="shape=partialRectangle;connectable=0;fillColor=none;top=0;left=0;bottom=0;right=0;fontStyle=1;overflow=hidden;whiteSpace=wrap;html=1;" parent="UCniVklKE88xbIbKEdX8-82" vertex="1">
          <mxGeometry width="30" height="30" as="geometry">
            <mxRectangle width="30" height="30" as="alternateBounds" />
          </mxGeometry>
        </mxCell>
        <mxCell id="UCniVklKE88xbIbKEdX8-84" value="portfolio_id UUID" style="shape=partialRectangle;connectable=0;fillColor=none;top=0;left=0;bottom=0;right=0;align=left;spacingLeft=6;fontStyle=5;overflow=hidden;whiteSpace=wrap;html=1;" parent="UCniVklKE88xbIbKEdX8-82" vertex="1">
          <mxGeometry x="30" width="433" height="30" as="geometry">
            <mxRectangle width="433" height="30" as="alternateBounds" />
          </mxGeometry>
        </mxCell>
        <mxCell id="UCniVklKE88xbIbKEdX8-85" value="" style="shape=tableRow;horizontal=0;startSize=0;swimlaneHead=0;swimlaneBody=0;fillColor=none;collapsible=0;dropTarget=0;points=[[0,0.5],[1,0.5]];portConstraint=eastwest;top=0;left=0;right=0;bottom=0;" parent="UCniVklKE88xbIbKEdX8-81" vertex="1">
          <mxGeometry y="60" width="463" height="30" as="geometry" />
        </mxCell>
        <mxCell id="UCniVklKE88xbIbKEdX8-86" value="FK1" style="shape=partialRectangle;connectable=0;fillColor=none;top=0;left=0;bottom=0;right=0;editable=1;overflow=hidden;whiteSpace=wrap;html=1;" parent="UCniVklKE88xbIbKEdX8-85" vertex="1">
          <mxGeometry width="30" height="30" as="geometry">
            <mxRectangle width="30" height="30" as="alternateBounds" />
          </mxGeometry>
        </mxCell>
        <mxCell id="UCniVklKE88xbIbKEdX8-87" value="user_id UUID NOT NULL" style="shape=partialRectangle;connectable=0;fillColor=none;top=0;left=0;bottom=0;right=0;align=left;spacingLeft=6;overflow=hidden;whiteSpace=wrap;html=1;" parent="UCniVklKE88xbIbKEdX8-85" vertex="1">
          <mxGeometry x="30" width="433" height="30" as="geometry">
            <mxRectangle width="433" height="30" as="alternateBounds" />
          </mxGeometry>
        </mxCell>
        <mxCell id="UCniVklKE88xbIbKEdX8-88" value="" style="shape=tableRow;horizontal=0;startSize=0;swimlaneHead=0;swimlaneBody=0;fillColor=none;collapsible=0;dropTarget=0;points=[[0,0.5],[1,0.5]];portConstraint=eastwest;top=0;left=0;right=0;bottom=0;" parent="UCniVklKE88xbIbKEdX8-81" vertex="1">
          <mxGeometry y="90" width="463" height="30" as="geometry" />
        </mxCell>
        <mxCell id="UCniVklKE88xbIbKEdX8-89" value="" style="shape=partialRectangle;connectable=0;fillColor=none;top=0;left=0;bottom=0;right=0;editable=1;overflow=hidden;whiteSpace=wrap;html=1;" parent="UCniVklKE88xbIbKEdX8-88" vertex="1">
          <mxGeometry width="30" height="30" as="geometry">
            <mxRectangle width="30" height="30" as="alternateBounds" />
          </mxGeometry>
        </mxCell>
        <mxCell id="UCniVklKE88xbIbKEdX8-90" value="cash_balance decimal(15,2) DEFAULT 100000USD" style="shape=partialRectangle;connectable=0;fillColor=none;top=0;left=0;bottom=0;right=0;align=left;spacingLeft=6;overflow=hidden;whiteSpace=wrap;html=1;" parent="UCniVklKE88xbIbKEdX8-88" vertex="1">
          <mxGeometry x="30" width="433" height="30" as="geometry">
            <mxRectangle width="433" height="30" as="alternateBounds" />
          </mxGeometry>
        </mxCell>
        <mxCell id="UCniVklKE88xbIbKEdX8-91" value="" style="shape=tableRow;horizontal=0;startSize=0;swimlaneHead=0;swimlaneBody=0;fillColor=none;collapsible=0;dropTarget=0;points=[[0,0.5],[1,0.5]];portConstraint=eastwest;top=0;left=0;right=0;bottom=0;" parent="UCniVklKE88xbIbKEdX8-81" vertex="1">
          <mxGeometry y="120" width="463" height="30" as="geometry" />
        </mxCell>
        <mxCell id="UCniVklKE88xbIbKEdX8-92" value="" style="shape=partialRectangle;connectable=0;fillColor=none;top=0;left=0;bottom=0;right=0;editable=1;overflow=hidden;whiteSpace=wrap;html=1;" parent="UCniVklKE88xbIbKEdX8-91" vertex="1">
          <mxGeometry width="30" height="30" as="geometry">
            <mxRectangle width="30" height="30" as="alternateBounds" />
          </mxGeometry>
        </mxCell>
        <mxCell id="UCniVklKE88xbIbKEdX8-93" value="created_at timestamp DEFAULT_CURRENT_TIMESTAMP" style="shape=partialRectangle;connectable=0;fillColor=none;top=0;left=0;bottom=0;right=0;align=left;spacingLeft=6;overflow=hidden;whiteSpace=wrap;html=1;" parent="UCniVklKE88xbIbKEdX8-91" vertex="1">
          <mxGeometry x="30" width="433" height="30" as="geometry">
            <mxRectangle width="433" height="30" as="alternateBounds" />
          </mxGeometry>
        </mxCell>
        <mxCell id="UCniVklKE88xbIbKEdX8-94" style="shape=tableRow;horizontal=0;startSize=0;swimlaneHead=0;swimlaneBody=0;fillColor=none;collapsible=0;dropTarget=0;points=[[0,0.5],[1,0.5]];portConstraint=eastwest;top=0;left=0;right=0;bottom=0;" parent="UCniVklKE88xbIbKEdX8-81" vertex="1">
          <mxGeometry y="150" width="463" height="30" as="geometry" />
        </mxCell>
        <mxCell id="UCniVklKE88xbIbKEdX8-95" style="shape=partialRectangle;connectable=0;fillColor=none;top=0;left=0;bottom=0;right=0;editable=1;overflow=hidden;whiteSpace=wrap;html=1;" parent="UCniVklKE88xbIbKEdX8-94" vertex="1">
          <mxGeometry width="30" height="30" as="geometry">
            <mxRectangle width="30" height="30" as="alternateBounds" />
          </mxGeometry>
        </mxCell>
        <mxCell id="UCniVklKE88xbIbKEdX8-96" value="updated_at timestamp DEFAULT_CURRENT_TIMESTAMP ON UPDATE&amp;nbsp;" style="shape=partialRectangle;connectable=0;fillColor=none;top=0;left=0;bottom=0;right=0;align=left;spacingLeft=6;overflow=hidden;whiteSpace=wrap;html=1;" parent="UCniVklKE88xbIbKEdX8-94" vertex="1">
          <mxGeometry x="30" width="433" height="30" as="geometry">
            <mxRectangle width="433" height="30" as="alternateBounds" />
          </mxGeometry>
        </mxCell>
        <mxCell id="UCniVklKE88xbIbKEdX8-101" value="" style="edgeStyle=entityRelationEdgeStyle;fontSize=12;html=1;endArrow=ERmandOne;startArrow=ERmandOne;rounded=0;exitX=1;exitY=0.5;exitDx=0;exitDy=0;entryX=0;entryY=0.5;entryDx=0;entryDy=0;" parent="1" source="UCniVklKE88xbIbKEdX8-5" target="UCniVklKE88xbIbKEdX8-85" edge="1">
          <mxGeometry width="100" height="100" relative="1" as="geometry">
            <mxPoint x="339" y="251" as="sourcePoint" />
            <mxPoint x="439" y="151" as="targetPoint" />
          </mxGeometry>
        </mxCell>
        <mxCell id="UCniVklKE88xbIbKEdX8-146" value="" style="group" parent="1" vertex="1" connectable="0">
          <mxGeometry x="1083" y="54" width="317" height="213" as="geometry" />
        </mxCell>
        <mxCell id="UCniVklKE88xbIbKEdX8-102" value="holdings" style="shape=table;startSize=30;container=1;collapsible=1;childLayout=tableLayout;fixedRows=1;rowLines=0;fontStyle=1;align=center;resizeLast=1;html=1;" parent="UCniVklKE88xbIbKEdX8-146" vertex="1">
          <mxGeometry x="1" width="317" height="213" as="geometry" />
        </mxCell>
        <mxCell id="UCniVklKE88xbIbKEdX8-103" value="" style="shape=tableRow;horizontal=0;startSize=0;swimlaneHead=0;swimlaneBody=0;fillColor=none;collapsible=0;dropTarget=0;points=[[0,0.5],[1,0.5]];portConstraint=eastwest;top=0;left=0;right=0;bottom=1;" parent="UCniVklKE88xbIbKEdX8-102" vertex="1">
          <mxGeometry y="30" width="317" height="30" as="geometry" />
        </mxCell>
        <mxCell id="UCniVklKE88xbIbKEdX8-104" value="PK" style="shape=partialRectangle;connectable=0;fillColor=none;top=0;left=0;bottom=0;right=0;fontStyle=1;overflow=hidden;whiteSpace=wrap;html=1;" parent="UCniVklKE88xbIbKEdX8-103" vertex="1">
          <mxGeometry width="30" height="30" as="geometry">
            <mxRectangle width="30" height="30" as="alternateBounds" />
          </mxGeometry>
        </mxCell>
        <mxCell id="UCniVklKE88xbIbKEdX8-105" value="holding_id int AUTO_INCREMENT" style="shape=partialRectangle;connectable=0;fillColor=none;top=0;left=0;bottom=0;right=0;align=left;spacingLeft=6;fontStyle=5;overflow=hidden;whiteSpace=wrap;html=1;" parent="UCniVklKE88xbIbKEdX8-103" vertex="1">
          <mxGeometry x="30" width="287" height="30" as="geometry">
            <mxRectangle width="287" height="30" as="alternateBounds" />
          </mxGeometry>
        </mxCell>
        <mxCell id="UCniVklKE88xbIbKEdX8-106" value="" style="shape=tableRow;horizontal=0;startSize=0;swimlaneHead=0;swimlaneBody=0;fillColor=none;collapsible=0;dropTarget=0;points=[[0,0.5],[1,0.5]];portConstraint=eastwest;top=0;left=0;right=0;bottom=0;" parent="UCniVklKE88xbIbKEdX8-102" vertex="1">
          <mxGeometry y="60" width="317" height="30" as="geometry" />
        </mxCell>
        <mxCell id="UCniVklKE88xbIbKEdX8-107" value="FK1" style="shape=partialRectangle;connectable=0;fillColor=none;top=0;left=0;bottom=0;right=0;editable=1;overflow=hidden;whiteSpace=wrap;html=1;" parent="UCniVklKE88xbIbKEdX8-106" vertex="1">
          <mxGeometry width="30" height="30" as="geometry">
            <mxRectangle width="30" height="30" as="alternateBounds" />
          </mxGeometry>
        </mxCell>
        <mxCell id="UCniVklKE88xbIbKEdX8-108" value="portfolio_id&amp;nbsp; UUID NOT NULL" style="shape=partialRectangle;connectable=0;fillColor=none;top=0;left=0;bottom=0;right=0;align=left;spacingLeft=6;overflow=hidden;whiteSpace=wrap;html=1;" parent="UCniVklKE88xbIbKEdX8-106" vertex="1">
          <mxGeometry x="30" width="287" height="30" as="geometry">
            <mxRectangle width="287" height="30" as="alternateBounds" />
          </mxGeometry>
        </mxCell>
        <mxCell id="UCniVklKE88xbIbKEdX8-109" value="" style="shape=tableRow;horizontal=0;startSize=0;swimlaneHead=0;swimlaneBody=0;fillColor=none;collapsible=0;dropTarget=0;points=[[0,0.5],[1,0.5]];portConstraint=eastwest;top=0;left=0;right=0;bottom=0;" parent="UCniVklKE88xbIbKEdX8-102" vertex="1">
          <mxGeometry y="90" width="317" height="30" as="geometry" />
        </mxCell>
        <mxCell id="UCniVklKE88xbIbKEdX8-110" value="FK2" style="shape=partialRectangle;connectable=0;fillColor=none;top=0;left=0;bottom=0;right=0;editable=1;overflow=hidden;whiteSpace=wrap;html=1;" parent="UCniVklKE88xbIbKEdX8-109" vertex="1">
          <mxGeometry width="30" height="30" as="geometry">
            <mxRectangle width="30" height="30" as="alternateBounds" />
          </mxGeometry>
        </mxCell>
        <mxCell id="UCniVklKE88xbIbKEdX8-111" value="stock_id int NOT NULL" style="shape=partialRectangle;connectable=0;fillColor=none;top=0;left=0;bottom=0;right=0;align=left;spacingLeft=6;overflow=hidden;whiteSpace=wrap;html=1;" parent="UCniVklKE88xbIbKEdX8-109" vertex="1">
          <mxGeometry x="30" width="287" height="30" as="geometry">
            <mxRectangle width="287" height="30" as="alternateBounds" />
          </mxGeometry>
        </mxCell>
        <mxCell id="UCniVklKE88xbIbKEdX8-112" value="" style="shape=tableRow;horizontal=0;startSize=0;swimlaneHead=0;swimlaneBody=0;fillColor=none;collapsible=0;dropTarget=0;points=[[0,0.5],[1,0.5]];portConstraint=eastwest;top=0;left=0;right=0;bottom=0;" parent="UCniVklKE88xbIbKEdX8-102" vertex="1">
          <mxGeometry y="120" width="317" height="30" as="geometry" />
        </mxCell>
        <mxCell id="UCniVklKE88xbIbKEdX8-113" value="" style="shape=partialRectangle;connectable=0;fillColor=none;top=0;left=0;bottom=0;right=0;editable=1;overflow=hidden;whiteSpace=wrap;html=1;" parent="UCniVklKE88xbIbKEdX8-112" vertex="1">
          <mxGeometry width="30" height="30" as="geometry">
            <mxRectangle width="30" height="30" as="alternateBounds" />
          </mxGeometry>
        </mxCell>
        <mxCell id="UCniVklKE88xbIbKEdX8-114" value="quantity int" style="shape=partialRectangle;connectable=0;fillColor=none;top=0;left=0;bottom=0;right=0;align=left;spacingLeft=6;overflow=hidden;whiteSpace=wrap;html=1;" parent="UCniVklKE88xbIbKEdX8-112" vertex="1">
          <mxGeometry x="30" width="287" height="30" as="geometry">
            <mxRectangle width="287" height="30" as="alternateBounds" />
          </mxGeometry>
        </mxCell>
        <mxCell id="UCniVklKE88xbIbKEdX8-115" style="shape=tableRow;horizontal=0;startSize=0;swimlaneHead=0;swimlaneBody=0;fillColor=none;collapsible=0;dropTarget=0;points=[[0,0.5],[1,0.5]];portConstraint=eastwest;top=0;left=0;right=0;bottom=0;" parent="UCniVklKE88xbIbKEdX8-102" vertex="1">
          <mxGeometry y="150" width="317" height="30" as="geometry" />
        </mxCell>
        <mxCell id="UCniVklKE88xbIbKEdX8-116" style="shape=partialRectangle;connectable=0;fillColor=none;top=0;left=0;bottom=0;right=0;editable=1;overflow=hidden;whiteSpace=wrap;html=1;" parent="UCniVklKE88xbIbKEdX8-115" vertex="1">
          <mxGeometry width="30" height="30" as="geometry">
            <mxRectangle width="30" height="30" as="alternateBounds" />
          </mxGeometry>
        </mxCell>
        <mxCell id="UCniVklKE88xbIbKEdX8-117" value="average_price decimal(10,2)" style="shape=partialRectangle;connectable=0;fillColor=none;top=0;left=0;bottom=0;right=0;align=left;spacingLeft=6;overflow=hidden;whiteSpace=wrap;html=1;" parent="UCniVklKE88xbIbKEdX8-115" vertex="1">
          <mxGeometry x="30" width="287" height="30" as="geometry">
            <mxRectangle width="287" height="30" as="alternateBounds" />
          </mxGeometry>
        </mxCell>
        <mxCell id="UCniVklKE88xbIbKEdX8-145" value="UNIQUE KEY (portfolio_id, stock_id)" style="text;strokeColor=none;fillColor=none;spacingLeft=4;spacingRight=4;overflow=hidden;rotatable=0;points=[[0,0.5],[1,0.5]];portConstraint=eastwest;fontSize=12;whiteSpace=wrap;html=1;" parent="UCniVklKE88xbIbKEdX8-146" vertex="1">
          <mxGeometry x="21" y="182" width="266" height="29" as="geometry" />
        </mxCell>
        <mxCell id="UCniVklKE88xbIbKEdX8-147" value="transactions" style="shape=table;startSize=30;container=1;collapsible=1;childLayout=tableLayout;fixedRows=1;rowLines=0;fontStyle=1;align=center;resizeLast=1;html=1;" parent="1" vertex="1">
          <mxGeometry x="1099" y="456" width="317" height="224" as="geometry" />
        </mxCell>
        <mxCell id="UCniVklKE88xbIbKEdX8-148" value="" style="shape=tableRow;horizontal=0;startSize=0;swimlaneHead=0;swimlaneBody=0;fillColor=none;collapsible=0;dropTarget=0;points=[[0,0.5],[1,0.5]];portConstraint=eastwest;top=0;left=0;right=0;bottom=1;" parent="UCniVklKE88xbIbKEdX8-147" vertex="1">
          <mxGeometry y="30" width="317" height="30" as="geometry" />
        </mxCell>
        <mxCell id="UCniVklKE88xbIbKEdX8-149" value="PK" style="shape=partialRectangle;connectable=0;fillColor=none;top=0;left=0;bottom=0;right=0;fontStyle=1;overflow=hidden;whiteSpace=wrap;html=1;" parent="UCniVklKE88xbIbKEdX8-148" vertex="1">
          <mxGeometry width="30" height="30" as="geometry">
            <mxRectangle width="30" height="30" as="alternateBounds" />
          </mxGeometry>
        </mxCell>
        <mxCell id="UCniVklKE88xbIbKEdX8-150" value="transaction_id int AUTO_INCREMENT" style="shape=partialRectangle;connectable=0;fillColor=none;top=0;left=0;bottom=0;right=0;align=left;spacingLeft=6;fontStyle=5;overflow=hidden;whiteSpace=wrap;html=1;" parent="UCniVklKE88xbIbKEdX8-148" vertex="1">
          <mxGeometry x="30" width="287" height="30" as="geometry">
            <mxRectangle width="287" height="30" as="alternateBounds" />
          </mxGeometry>
        </mxCell>
        <mxCell id="UCniVklKE88xbIbKEdX8-151" value="" style="shape=tableRow;horizontal=0;startSize=0;swimlaneHead=0;swimlaneBody=0;fillColor=none;collapsible=0;dropTarget=0;points=[[0,0.5],[1,0.5]];portConstraint=eastwest;top=0;left=0;right=0;bottom=0;" parent="UCniVklKE88xbIbKEdX8-147" vertex="1">
          <mxGeometry y="60" width="317" height="30" as="geometry" />
        </mxCell>
        <mxCell id="UCniVklKE88xbIbKEdX8-152" value="FK1" style="shape=partialRectangle;connectable=0;fillColor=none;top=0;left=0;bottom=0;right=0;editable=1;overflow=hidden;whiteSpace=wrap;html=1;" parent="UCniVklKE88xbIbKEdX8-151" vertex="1">
          <mxGeometry width="30" height="30" as="geometry">
            <mxRectangle width="30" height="30" as="alternateBounds" />
          </mxGeometry>
        </mxCell>
        <mxCell id="UCniVklKE88xbIbKEdX8-153" value="portfolio_id int" style="shape=partialRectangle;connectable=0;fillColor=none;top=0;left=0;bottom=0;right=0;align=left;spacingLeft=6;overflow=hidden;whiteSpace=wrap;html=1;" parent="UCniVklKE88xbIbKEdX8-151" vertex="1">
          <mxGeometry x="30" width="287" height="30" as="geometry">
            <mxRectangle width="287" height="30" as="alternateBounds" />
          </mxGeometry>
        </mxCell>
        <mxCell id="UCniVklKE88xbIbKEdX8-154" value="" style="shape=tableRow;horizontal=0;startSize=0;swimlaneHead=0;swimlaneBody=0;fillColor=none;collapsible=0;dropTarget=0;points=[[0,0.5],[1,0.5]];portConstraint=eastwest;top=0;left=0;right=0;bottom=0;" parent="UCniVklKE88xbIbKEdX8-147" vertex="1">
          <mxGeometry y="90" width="317" height="30" as="geometry" />
        </mxCell>
        <mxCell id="UCniVklKE88xbIbKEdX8-155" value="FK2" style="shape=partialRectangle;connectable=0;fillColor=none;top=0;left=0;bottom=0;right=0;editable=1;overflow=hidden;whiteSpace=wrap;html=1;" parent="UCniVklKE88xbIbKEdX8-154" vertex="1">
          <mxGeometry width="30" height="30" as="geometry">
            <mxRectangle width="30" height="30" as="alternateBounds" />
          </mxGeometry>
        </mxCell>
        <mxCell id="UCniVklKE88xbIbKEdX8-156" value="stock_id int" style="shape=partialRectangle;connectable=0;fillColor=none;top=0;left=0;bottom=0;right=0;align=left;spacingLeft=6;overflow=hidden;whiteSpace=wrap;html=1;" parent="UCniVklKE88xbIbKEdX8-154" vertex="1">
          <mxGeometry x="30" width="287" height="30" as="geometry">
            <mxRectangle width="287" height="30" as="alternateBounds" />
          </mxGeometry>
        </mxCell>
        <mxCell id="UCniVklKE88xbIbKEdX8-157" value="" style="shape=tableRow;horizontal=0;startSize=0;swimlaneHead=0;swimlaneBody=0;fillColor=none;collapsible=0;dropTarget=0;points=[[0,0.5],[1,0.5]];portConstraint=eastwest;top=0;left=0;right=0;bottom=0;" parent="UCniVklKE88xbIbKEdX8-147" vertex="1">
          <mxGeometry y="120" width="317" height="30" as="geometry" />
        </mxCell>
        <mxCell id="UCniVklKE88xbIbKEdX8-158" value="" style="shape=partialRectangle;connectable=0;fillColor=none;top=0;left=0;bottom=0;right=0;editable=1;overflow=hidden;whiteSpace=wrap;html=1;" parent="UCniVklKE88xbIbKEdX8-157" vertex="1">
          <mxGeometry width="30" height="30" as="geometry">
            <mxRectangle width="30" height="30" as="alternateBounds" />
          </mxGeometry>
        </mxCell>
        <mxCell id="UCniVklKE88xbIbKEdX8-159" value="transaction_type enum(BUY,SELL)" style="shape=partialRectangle;connectable=0;fillColor=none;top=0;left=0;bottom=0;right=0;align=left;spacingLeft=6;overflow=hidden;whiteSpace=wrap;html=1;" parent="UCniVklKE88xbIbKEdX8-157" vertex="1">
          <mxGeometry x="30" width="287" height="30" as="geometry">
            <mxRectangle width="287" height="30" as="alternateBounds" />
          </mxGeometry>
        </mxCell>
        <mxCell id="UCniVklKE88xbIbKEdX8-160" style="shape=tableRow;horizontal=0;startSize=0;swimlaneHead=0;swimlaneBody=0;fillColor=none;collapsible=0;dropTarget=0;points=[[0,0.5],[1,0.5]];portConstraint=eastwest;top=0;left=0;right=0;bottom=0;" parent="UCniVklKE88xbIbKEdX8-147" vertex="1">
          <mxGeometry y="150" width="317" height="30" as="geometry" />
        </mxCell>
        <mxCell id="UCniVklKE88xbIbKEdX8-161" style="shape=partialRectangle;connectable=0;fillColor=none;top=0;left=0;bottom=0;right=0;editable=1;overflow=hidden;whiteSpace=wrap;html=1;" parent="UCniVklKE88xbIbKEdX8-160" vertex="1">
          <mxGeometry width="30" height="30" as="geometry">
            <mxRectangle width="30" height="30" as="alternateBounds" />
          </mxGeometry>
        </mxCell>
        <mxCell id="UCniVklKE88xbIbKEdX8-162" value="quantity date" style="shape=partialRectangle;connectable=0;fillColor=none;top=0;left=0;bottom=0;right=0;align=left;spacingLeft=6;overflow=hidden;whiteSpace=wrap;html=1;" parent="UCniVklKE88xbIbKEdX8-160" vertex="1">
          <mxGeometry x="30" width="287" height="30" as="geometry">
            <mxRectangle width="287" height="30" as="alternateBounds" />
          </mxGeometry>
        </mxCell>
        <mxCell id="UCniVklKE88xbIbKEdX8-163" style="shape=tableRow;horizontal=0;startSize=0;swimlaneHead=0;swimlaneBody=0;fillColor=none;collapsible=0;dropTarget=0;points=[[0,0.5],[1,0.5]];portConstraint=eastwest;top=0;left=0;right=0;bottom=0;" parent="UCniVklKE88xbIbKEdX8-147" vertex="1">
          <mxGeometry y="180" width="317" height="30" as="geometry" />
        </mxCell>
        <mxCell id="UCniVklKE88xbIbKEdX8-164" style="shape=partialRectangle;connectable=0;fillColor=none;top=0;left=0;bottom=0;right=0;editable=1;overflow=hidden;whiteSpace=wrap;html=1;" parent="UCniVklKE88xbIbKEdX8-163" vertex="1">
          <mxGeometry width="30" height="30" as="geometry">
            <mxRectangle width="30" height="30" as="alternateBounds" />
          </mxGeometry>
        </mxCell>
        <mxCell id="UCniVklKE88xbIbKEdX8-165" value="transaction_date timestamp DEFAULT CURRENT_TIMESTAMP" style="shape=partialRectangle;connectable=0;fillColor=none;top=0;left=0;bottom=0;right=0;align=left;spacingLeft=6;overflow=hidden;whiteSpace=wrap;html=1;" parent="UCniVklKE88xbIbKEdX8-163" vertex="1">
          <mxGeometry x="30" width="287" height="30" as="geometry">
            <mxRectangle width="287" height="30" as="alternateBounds" />
          </mxGeometry>
        </mxCell>
        <mxCell id="UCniVklKE88xbIbKEdX8-168" value="" style="edgeStyle=entityRelationEdgeStyle;fontSize=12;html=1;endArrow=ERoneToMany;rounded=0;exitX=1;exitY=0.5;exitDx=0;exitDy=0;entryX=0;entryY=0.5;entryDx=0;entryDy=0;" parent="1" source="UCniVklKE88xbIbKEdX8-31" target="UCniVklKE88xbIbKEdX8-154" edge="1">
          <mxGeometry width="100" height="100" relative="1" as="geometry">
            <mxPoint x="520" y="426" as="sourcePoint" />
            <mxPoint x="637" y="669" as="targetPoint" />
          </mxGeometry>
        </mxCell>
        <mxCell id="UCniVklKE88xbIbKEdX8-169" value="" style="edgeStyle=entityRelationEdgeStyle;fontSize=12;html=1;endArrow=ERoneToMany;rounded=0;exitX=1;exitY=0.5;exitDx=0;exitDy=0;entryX=0;entryY=0.5;entryDx=0;entryDy=0;" parent="1" source="UCniVklKE88xbIbKEdX8-31" target="UCniVklKE88xbIbKEdX8-109" edge="1">
          <mxGeometry width="100" height="100" relative="1" as="geometry">
            <mxPoint x="367" y="515" as="sourcePoint" />
            <mxPoint x="1083.0000000000002" y="210" as="targetPoint" />
            <Array as="points">
              <mxPoint x="352" y="521" />
              <mxPoint x="610" y="330" />
            </Array>
          </mxGeometry>
        </mxCell>
        <mxCell id="2yAPakeh3w6dgKdzW8MD-6" value="" style="edgeStyle=entityRelationEdgeStyle;fontSize=12;html=1;endArrow=ERoneToMany;rounded=0;entryX=0;entryY=0.5;entryDx=0;entryDy=0;" edge="1" parent="1" target="UCniVklKE88xbIbKEdX8-106">
          <mxGeometry width="100" height="100" relative="1" as="geometry">
            <mxPoint x="907" y="61" as="sourcePoint" />
            <mxPoint x="710" y="276" as="targetPoint" />
          </mxGeometry>
        </mxCell>
        <mxCell id="2yAPakeh3w6dgKdzW8MD-7" value="payment_transactions" style="shape=table;startSize=30;container=1;collapsible=1;childLayout=tableLayout;fixedRows=1;rowLines=0;fontStyle=1;align=center;resizeLast=1;html=1;" vertex="1" parent="1">
          <mxGeometry x="1083" y="-305" width="463" height="291" as="geometry" />
        </mxCell>
        <mxCell id="2yAPakeh3w6dgKdzW8MD-8" value="" style="shape=tableRow;horizontal=0;startSize=0;swimlaneHead=0;swimlaneBody=0;fillColor=none;collapsible=0;dropTarget=0;points=[[0,0.5],[1,0.5]];portConstraint=eastwest;top=0;left=0;right=0;bottom=1;" vertex="1" parent="2yAPakeh3w6dgKdzW8MD-7">
          <mxGeometry y="30" width="463" height="30" as="geometry" />
        </mxCell>
        <mxCell id="2yAPakeh3w6dgKdzW8MD-9" value="PK" style="shape=partialRectangle;connectable=0;fillColor=none;top=0;left=0;bottom=0;right=0;fontStyle=1;overflow=hidden;whiteSpace=wrap;html=1;" vertex="1" parent="2yAPakeh3w6dgKdzW8MD-8">
          <mxGeometry width="30" height="30" as="geometry">
            <mxRectangle width="30" height="30" as="alternateBounds" />
          </mxGeometry>
        </mxCell>
        <mxCell id="2yAPakeh3w6dgKdzW8MD-10" value="id int AUTO_INCREMENT" style="shape=partialRectangle;connectable=0;fillColor=none;top=0;left=0;bottom=0;right=0;align=left;spacingLeft=6;fontStyle=5;overflow=hidden;whiteSpace=wrap;html=1;" vertex="1" parent="2yAPakeh3w6dgKdzW8MD-8">
          <mxGeometry x="30" width="433" height="30" as="geometry">
            <mxRectangle width="433" height="30" as="alternateBounds" />
          </mxGeometry>
        </mxCell>
        <mxCell id="2yAPakeh3w6dgKdzW8MD-11" value="" style="shape=tableRow;horizontal=0;startSize=0;swimlaneHead=0;swimlaneBody=0;fillColor=none;collapsible=0;dropTarget=0;points=[[0,0.5],[1,0.5]];portConstraint=eastwest;top=0;left=0;right=0;bottom=0;" vertex="1" parent="2yAPakeh3w6dgKdzW8MD-7">
          <mxGeometry y="60" width="463" height="30" as="geometry" />
        </mxCell>
        <mxCell id="2yAPakeh3w6dgKdzW8MD-12" value="FK1" style="shape=partialRectangle;connectable=0;fillColor=none;top=0;left=0;bottom=0;right=0;editable=1;overflow=hidden;whiteSpace=wrap;html=1;" vertex="1" parent="2yAPakeh3w6dgKdzW8MD-11">
          <mxGeometry width="30" height="30" as="geometry">
            <mxRectangle width="30" height="30" as="alternateBounds" />
          </mxGeometry>
        </mxCell>
        <mxCell id="2yAPakeh3w6dgKdzW8MD-13" value="portfolio_id&amp;nbsp; UUID NOT NULL" style="shape=partialRectangle;connectable=0;fillColor=none;top=0;left=0;bottom=0;right=0;align=left;spacingLeft=6;overflow=hidden;whiteSpace=wrap;html=1;" vertex="1" parent="2yAPakeh3w6dgKdzW8MD-11">
          <mxGeometry x="30" width="433" height="30" as="geometry">
            <mxRectangle width="433" height="30" as="alternateBounds" />
          </mxGeometry>
        </mxCell>
        <mxCell id="2yAPakeh3w6dgKdzW8MD-25" style="shape=tableRow;horizontal=0;startSize=0;swimlaneHead=0;swimlaneBody=0;fillColor=none;collapsible=0;dropTarget=0;points=[[0,0.5],[1,0.5]];portConstraint=eastwest;top=0;left=0;right=0;bottom=0;" vertex="1" parent="2yAPakeh3w6dgKdzW8MD-7">
          <mxGeometry y="90" width="463" height="30" as="geometry" />
        </mxCell>
        <mxCell id="2yAPakeh3w6dgKdzW8MD-26" style="shape=partialRectangle;connectable=0;fillColor=none;top=0;left=0;bottom=0;right=0;editable=1;overflow=hidden;whiteSpace=wrap;html=1;" vertex="1" parent="2yAPakeh3w6dgKdzW8MD-25">
          <mxGeometry width="30" height="30" as="geometry">
            <mxRectangle width="30" height="30" as="alternateBounds" />
          </mxGeometry>
        </mxCell>
        <mxCell id="2yAPakeh3w6dgKdzW8MD-27" value="reference_number varchar(255) NOT NULL UNIQUE" style="shape=partialRectangle;connectable=0;fillColor=none;top=0;left=0;bottom=0;right=0;align=left;spacingLeft=6;overflow=hidden;whiteSpace=wrap;html=1;" vertex="1" parent="2yAPakeh3w6dgKdzW8MD-25">
          <mxGeometry x="30" width="433" height="30" as="geometry">
            <mxRectangle width="433" height="30" as="alternateBounds" />
          </mxGeometry>
        </mxCell>
        <mxCell id="2yAPakeh3w6dgKdzW8MD-14" value="" style="shape=tableRow;horizontal=0;startSize=0;swimlaneHead=0;swimlaneBody=0;fillColor=none;collapsible=0;dropTarget=0;points=[[0,0.5],[1,0.5]];portConstraint=eastwest;top=0;left=0;right=0;bottom=0;" vertex="1" parent="2yAPakeh3w6dgKdzW8MD-7">
          <mxGeometry y="120" width="463" height="30" as="geometry" />
        </mxCell>
        <mxCell id="2yAPakeh3w6dgKdzW8MD-15" value="" style="shape=partialRectangle;connectable=0;fillColor=none;top=0;left=0;bottom=0;right=0;editable=1;overflow=hidden;whiteSpace=wrap;html=1;" vertex="1" parent="2yAPakeh3w6dgKdzW8MD-14">
          <mxGeometry width="30" height="30" as="geometry">
            <mxRectangle width="30" height="30" as="alternateBounds" />
          </mxGeometry>
        </mxCell>
        <mxCell id="2yAPakeh3w6dgKdzW8MD-16" value="vnd_amount decimal(15,2) NOT NULL" style="shape=partialRectangle;connectable=0;fillColor=none;top=0;left=0;bottom=0;right=0;align=left;spacingLeft=6;overflow=hidden;whiteSpace=wrap;html=1;" vertex="1" parent="2yAPakeh3w6dgKdzW8MD-14">
          <mxGeometry x="30" width="433" height="30" as="geometry">
            <mxRectangle width="433" height="30" as="alternateBounds" />
          </mxGeometry>
        </mxCell>
        <mxCell id="2yAPakeh3w6dgKdzW8MD-28" style="shape=tableRow;horizontal=0;startSize=0;swimlaneHead=0;swimlaneBody=0;fillColor=none;collapsible=0;dropTarget=0;points=[[0,0.5],[1,0.5]];portConstraint=eastwest;top=0;left=0;right=0;bottom=0;" vertex="1" parent="2yAPakeh3w6dgKdzW8MD-7">
          <mxGeometry y="150" width="463" height="30" as="geometry" />
        </mxCell>
        <mxCell id="2yAPakeh3w6dgKdzW8MD-29" style="shape=partialRectangle;connectable=0;fillColor=none;top=0;left=0;bottom=0;right=0;editable=1;overflow=hidden;whiteSpace=wrap;html=1;" vertex="1" parent="2yAPakeh3w6dgKdzW8MD-28">
          <mxGeometry width="30" height="30" as="geometry">
            <mxRectangle width="30" height="30" as="alternateBounds" />
          </mxGeometry>
        </mxCell>
        <mxCell id="2yAPakeh3w6dgKdzW8MD-30" value="virtual_amount decimal(15,2) NOT NULL" style="shape=partialRectangle;connectable=0;fillColor=none;top=0;left=0;bottom=0;right=0;align=left;spacingLeft=6;overflow=hidden;whiteSpace=wrap;html=1;" vertex="1" parent="2yAPakeh3w6dgKdzW8MD-28">
          <mxGeometry x="30" width="433" height="30" as="geometry">
            <mxRectangle width="433" height="30" as="alternateBounds" />
          </mxGeometry>
        </mxCell>
        <mxCell id="2yAPakeh3w6dgKdzW8MD-31" style="shape=tableRow;horizontal=0;startSize=0;swimlaneHead=0;swimlaneBody=0;fillColor=none;collapsible=0;dropTarget=0;points=[[0,0.5],[1,0.5]];portConstraint=eastwest;top=0;left=0;right=0;bottom=0;" vertex="1" parent="2yAPakeh3w6dgKdzW8MD-7">
          <mxGeometry y="180" width="463" height="30" as="geometry" />
        </mxCell>
        <mxCell id="2yAPakeh3w6dgKdzW8MD-32" style="shape=partialRectangle;connectable=0;fillColor=none;top=0;left=0;bottom=0;right=0;editable=1;overflow=hidden;whiteSpace=wrap;html=1;" vertex="1" parent="2yAPakeh3w6dgKdzW8MD-31">
          <mxGeometry width="30" height="30" as="geometry">
            <mxRectangle width="30" height="30" as="alternateBounds" />
          </mxGeometry>
        </mxCell>
        <mxCell id="2yAPakeh3w6dgKdzW8MD-33" value="status varcahr(50) NOT NULL DEFAULT &#39;complete&#39;" style="shape=partialRectangle;connectable=0;fillColor=none;top=0;left=0;bottom=0;right=0;align=left;spacingLeft=6;overflow=hidden;whiteSpace=wrap;html=1;" vertex="1" parent="2yAPakeh3w6dgKdzW8MD-31">
          <mxGeometry x="30" width="433" height="30" as="geometry">
            <mxRectangle width="433" height="30" as="alternateBounds" />
          </mxGeometry>
        </mxCell>
        <mxCell id="2yAPakeh3w6dgKdzW8MD-17" value="" style="shape=tableRow;horizontal=0;startSize=0;swimlaneHead=0;swimlaneBody=0;fillColor=none;collapsible=0;dropTarget=0;points=[[0,0.5],[1,0.5]];portConstraint=eastwest;top=0;left=0;right=0;bottom=0;" vertex="1" parent="2yAPakeh3w6dgKdzW8MD-7">
          <mxGeometry y="210" width="463" height="30" as="geometry" />
        </mxCell>
        <mxCell id="2yAPakeh3w6dgKdzW8MD-18" value="" style="shape=partialRectangle;connectable=0;fillColor=none;top=0;left=0;bottom=0;right=0;editable=1;overflow=hidden;whiteSpace=wrap;html=1;" vertex="1" parent="2yAPakeh3w6dgKdzW8MD-17">
          <mxGeometry width="30" height="30" as="geometry">
            <mxRectangle width="30" height="30" as="alternateBounds" />
          </mxGeometry>
        </mxCell>
        <mxCell id="2yAPakeh3w6dgKdzW8MD-19" value="created_at timestamp DEFAULT_CURRENT_TIMESTAMP" style="shape=partialRectangle;connectable=0;fillColor=none;top=0;left=0;bottom=0;right=0;align=left;spacingLeft=6;overflow=hidden;whiteSpace=wrap;html=1;" vertex="1" parent="2yAPakeh3w6dgKdzW8MD-17">
          <mxGeometry x="30" width="433" height="30" as="geometry">
            <mxRectangle width="433" height="30" as="alternateBounds" />
          </mxGeometry>
        </mxCell>
        <mxCell id="2yAPakeh3w6dgKdzW8MD-20" style="shape=tableRow;horizontal=0;startSize=0;swimlaneHead=0;swimlaneBody=0;fillColor=none;collapsible=0;dropTarget=0;points=[[0,0.5],[1,0.5]];portConstraint=eastwest;top=0;left=0;right=0;bottom=0;" vertex="1" parent="2yAPakeh3w6dgKdzW8MD-7">
          <mxGeometry y="240" width="463" height="30" as="geometry" />
        </mxCell>
        <mxCell id="2yAPakeh3w6dgKdzW8MD-21" style="shape=partialRectangle;connectable=0;fillColor=none;top=0;left=0;bottom=0;right=0;editable=1;overflow=hidden;whiteSpace=wrap;html=1;" vertex="1" parent="2yAPakeh3w6dgKdzW8MD-20">
          <mxGeometry width="30" height="30" as="geometry">
            <mxRectangle width="30" height="30" as="alternateBounds" />
          </mxGeometry>
        </mxCell>
        <mxCell id="2yAPakeh3w6dgKdzW8MD-22" value="updated_at timestamp DEFAULT_CURRENT_TIMESTAMP ON UPDATE&amp;nbsp;" style="shape=partialRectangle;connectable=0;fillColor=none;top=0;left=0;bottom=0;right=0;align=left;spacingLeft=6;overflow=hidden;whiteSpace=wrap;html=1;" vertex="1" parent="2yAPakeh3w6dgKdzW8MD-20">
          <mxGeometry x="30" width="433" height="30" as="geometry">
            <mxRectangle width="433" height="30" as="alternateBounds" />
          </mxGeometry>
        </mxCell>
        <mxCell id="2yAPakeh3w6dgKdzW8MD-24" value="" style="edgeStyle=entityRelationEdgeStyle;fontSize=12;html=1;endArrow=ERoneToMany;rounded=0;entryX=0;entryY=0.5;entryDx=0;entryDy=0;exitX=1;exitY=0.5;exitDx=0;exitDy=0;" edge="1" parent="1" source="UCniVklKE88xbIbKEdX8-82" target="2yAPakeh3w6dgKdzW8MD-11">
          <mxGeometry width="100" height="100" relative="1" as="geometry">
            <mxPoint x="905" y="-32" as="sourcePoint" />
            <mxPoint x="1094" y="139" as="targetPoint" />
          </mxGeometry>
        </mxCell>
        <mxCell id="2yAPakeh3w6dgKdzW8MD-34" value="remeber_devices" style="shape=table;startSize=30;container=1;collapsible=1;childLayout=tableLayout;fixedRows=1;rowLines=0;fontStyle=1;align=center;resizeLast=1;html=1;" vertex="1" parent="1">
          <mxGeometry x="469" y="-359" width="461" height="231" as="geometry" />
        </mxCell>
        <mxCell id="2yAPakeh3w6dgKdzW8MD-35" value="" style="shape=tableRow;horizontal=0;startSize=0;swimlaneHead=0;swimlaneBody=0;fillColor=none;collapsible=0;dropTarget=0;points=[[0,0.5],[1,0.5]];portConstraint=eastwest;top=0;left=0;right=0;bottom=1;" vertex="1" parent="2yAPakeh3w6dgKdzW8MD-34">
          <mxGeometry y="30" width="461" height="30" as="geometry" />
        </mxCell>
        <mxCell id="2yAPakeh3w6dgKdzW8MD-36" value="PK" style="shape=partialRectangle;connectable=0;fillColor=none;top=0;left=0;bottom=0;right=0;fontStyle=1;overflow=hidden;whiteSpace=wrap;html=1;" vertex="1" parent="2yAPakeh3w6dgKdzW8MD-35">
          <mxGeometry width="30" height="30" as="geometry">
            <mxRectangle width="30" height="30" as="alternateBounds" />
          </mxGeometry>
        </mxCell>
        <mxCell id="2yAPakeh3w6dgKdzW8MD-37" value="id int AUTO_INCREMENT" style="shape=partialRectangle;connectable=0;fillColor=none;top=0;left=0;bottom=0;right=0;align=left;spacingLeft=6;fontStyle=5;overflow=hidden;whiteSpace=wrap;html=1;" vertex="1" parent="2yAPakeh3w6dgKdzW8MD-35">
          <mxGeometry x="30" width="431" height="30" as="geometry">
            <mxRectangle width="431" height="30" as="alternateBounds" />
          </mxGeometry>
        </mxCell>
        <mxCell id="2yAPakeh3w6dgKdzW8MD-38" value="" style="shape=tableRow;horizontal=0;startSize=0;swimlaneHead=0;swimlaneBody=0;fillColor=none;collapsible=0;dropTarget=0;points=[[0,0.5],[1,0.5]];portConstraint=eastwest;top=0;left=0;right=0;bottom=0;" vertex="1" parent="2yAPakeh3w6dgKdzW8MD-34">
          <mxGeometry y="60" width="461" height="30" as="geometry" />
        </mxCell>
        <mxCell id="2yAPakeh3w6dgKdzW8MD-39" value="FK1" style="shape=partialRectangle;connectable=0;fillColor=none;top=0;left=0;bottom=0;right=0;editable=1;overflow=hidden;whiteSpace=wrap;html=1;" vertex="1" parent="2yAPakeh3w6dgKdzW8MD-38">
          <mxGeometry width="30" height="30" as="geometry">
            <mxRectangle width="30" height="30" as="alternateBounds" />
          </mxGeometry>
        </mxCell>
        <mxCell id="2yAPakeh3w6dgKdzW8MD-40" value="user_id&amp;nbsp; UUID NOT NULL" style="shape=partialRectangle;connectable=0;fillColor=none;top=0;left=0;bottom=0;right=0;align=left;spacingLeft=6;overflow=hidden;whiteSpace=wrap;html=1;" vertex="1" parent="2yAPakeh3w6dgKdzW8MD-38">
          <mxGeometry x="30" width="431" height="30" as="geometry">
            <mxRectangle width="431" height="30" as="alternateBounds" />
          </mxGeometry>
        </mxCell>
        <mxCell id="2yAPakeh3w6dgKdzW8MD-41" style="shape=tableRow;horizontal=0;startSize=0;swimlaneHead=0;swimlaneBody=0;fillColor=none;collapsible=0;dropTarget=0;points=[[0,0.5],[1,0.5]];portConstraint=eastwest;top=0;left=0;right=0;bottom=0;" vertex="1" parent="2yAPakeh3w6dgKdzW8MD-34">
          <mxGeometry y="90" width="461" height="30" as="geometry" />
        </mxCell>
        <mxCell id="2yAPakeh3w6dgKdzW8MD-42" style="shape=partialRectangle;connectable=0;fillColor=none;top=0;left=0;bottom=0;right=0;editable=1;overflow=hidden;whiteSpace=wrap;html=1;" vertex="1" parent="2yAPakeh3w6dgKdzW8MD-41">
          <mxGeometry width="30" height="30" as="geometry">
            <mxRectangle width="30" height="30" as="alternateBounds" />
          </mxGeometry>
        </mxCell>
        <mxCell id="2yAPakeh3w6dgKdzW8MD-43" value="visitor_id&amp;nbsp; varchar(255) NOT NULL" style="shape=partialRectangle;connectable=0;fillColor=none;top=0;left=0;bottom=0;right=0;align=left;spacingLeft=6;overflow=hidden;whiteSpace=wrap;html=1;" vertex="1" parent="2yAPakeh3w6dgKdzW8MD-41">
          <mxGeometry x="30" width="431" height="30" as="geometry">
            <mxRectangle width="431" height="30" as="alternateBounds" />
          </mxGeometry>
        </mxCell>
        <mxCell id="2yAPakeh3w6dgKdzW8MD-44" value="" style="shape=tableRow;horizontal=0;startSize=0;swimlaneHead=0;swimlaneBody=0;fillColor=none;collapsible=0;dropTarget=0;points=[[0,0.5],[1,0.5]];portConstraint=eastwest;top=0;left=0;right=0;bottom=0;" vertex="1" parent="2yAPakeh3w6dgKdzW8MD-34">
          <mxGeometry y="120" width="461" height="30" as="geometry" />
        </mxCell>
        <mxCell id="2yAPakeh3w6dgKdzW8MD-45" value="" style="shape=partialRectangle;connectable=0;fillColor=none;top=0;left=0;bottom=0;right=0;editable=1;overflow=hidden;whiteSpace=wrap;html=1;" vertex="1" parent="2yAPakeh3w6dgKdzW8MD-44">
          <mxGeometry width="30" height="30" as="geometry">
            <mxRectangle width="30" height="30" as="alternateBounds" />
          </mxGeometry>
        </mxCell>
        <mxCell id="2yAPakeh3w6dgKdzW8MD-46" value="confidient_score decimal(4,3) DEFAULT 0" style="shape=partialRectangle;connectable=0;fillColor=none;top=0;left=0;bottom=0;right=0;align=left;spacingLeft=6;overflow=hidden;whiteSpace=wrap;html=1;" vertex="1" parent="2yAPakeh3w6dgKdzW8MD-44">
          <mxGeometry x="30" width="431" height="30" as="geometry">
            <mxRectangle width="431" height="30" as="alternateBounds" />
          </mxGeometry>
        </mxCell>
        <mxCell id="2yAPakeh3w6dgKdzW8MD-53" value="" style="shape=tableRow;horizontal=0;startSize=0;swimlaneHead=0;swimlaneBody=0;fillColor=none;collapsible=0;dropTarget=0;points=[[0,0.5],[1,0.5]];portConstraint=eastwest;top=0;left=0;right=0;bottom=0;" vertex="1" parent="2yAPakeh3w6dgKdzW8MD-34">
          <mxGeometry y="150" width="461" height="30" as="geometry" />
        </mxCell>
        <mxCell id="2yAPakeh3w6dgKdzW8MD-54" value="" style="shape=partialRectangle;connectable=0;fillColor=none;top=0;left=0;bottom=0;right=0;editable=1;overflow=hidden;whiteSpace=wrap;html=1;" vertex="1" parent="2yAPakeh3w6dgKdzW8MD-53">
          <mxGeometry width="30" height="30" as="geometry">
            <mxRectangle width="30" height="30" as="alternateBounds" />
          </mxGeometry>
        </mxCell>
        <mxCell id="2yAPakeh3w6dgKdzW8MD-55" value="created_at timestamp DEFAULT_CURRENT_TIMESTAMP" style="shape=partialRectangle;connectable=0;fillColor=none;top=0;left=0;bottom=0;right=0;align=left;spacingLeft=6;overflow=hidden;whiteSpace=wrap;html=1;" vertex="1" parent="2yAPakeh3w6dgKdzW8MD-53">
          <mxGeometry x="30" width="431" height="30" as="geometry">
            <mxRectangle width="431" height="30" as="alternateBounds" />
          </mxGeometry>
        </mxCell>
        <mxCell id="2yAPakeh3w6dgKdzW8MD-56" style="shape=tableRow;horizontal=0;startSize=0;swimlaneHead=0;swimlaneBody=0;fillColor=none;collapsible=0;dropTarget=0;points=[[0,0.5],[1,0.5]];portConstraint=eastwest;top=0;left=0;right=0;bottom=0;" vertex="1" parent="2yAPakeh3w6dgKdzW8MD-34">
          <mxGeometry y="180" width="461" height="30" as="geometry" />
        </mxCell>
        <mxCell id="2yAPakeh3w6dgKdzW8MD-57" style="shape=partialRectangle;connectable=0;fillColor=none;top=0;left=0;bottom=0;right=0;editable=1;overflow=hidden;whiteSpace=wrap;html=1;" vertex="1" parent="2yAPakeh3w6dgKdzW8MD-56">
          <mxGeometry width="30" height="30" as="geometry">
            <mxRectangle width="30" height="30" as="alternateBounds" />
          </mxGeometry>
        </mxCell>
        <mxCell id="2yAPakeh3w6dgKdzW8MD-58" value="expired_at timestamp DEFAULT_CURRENT_TIMESTAMP&amp;nbsp;&amp;nbsp;" style="shape=partialRectangle;connectable=0;fillColor=none;top=0;left=0;bottom=0;right=0;align=left;spacingLeft=6;overflow=hidden;whiteSpace=wrap;html=1;" vertex="1" parent="2yAPakeh3w6dgKdzW8MD-56">
          <mxGeometry x="30" width="431" height="30" as="geometry">
            <mxRectangle width="431" height="30" as="alternateBounds" />
          </mxGeometry>
        </mxCell>
        <mxCell id="2yAPakeh3w6dgKdzW8MD-59" value="" style="edgeStyle=entityRelationEdgeStyle;fontSize=12;html=1;endArrow=ERmandOne;startArrow=ERmandOne;rounded=0;exitX=1;exitY=0.5;exitDx=0;exitDy=0;entryX=0;entryY=0.5;entryDx=0;entryDy=0;" edge="1" parent="1" source="UCniVklKE88xbIbKEdX8-5" target="2yAPakeh3w6dgKdzW8MD-38">
          <mxGeometry width="100" height="100" relative="1" as="geometry">
            <mxPoint x="242" y="113" as="sourcePoint" />
            <mxPoint x="342" y="13" as="targetPoint" />
            <Array as="points">
              <mxPoint x="404" y="-190" />
              <mxPoint x="380" y="-7" />
            </Array>
          </mxGeometry>
        </mxCell>
        <mxCell id="2yAPakeh3w6dgKdzW8MD-88" value="" style="edgeStyle=entityRelationEdgeStyle;fontSize=12;html=1;endArrow=ERoneToMany;rounded=0;exitX=1;exitY=0.5;exitDx=0;exitDy=0;entryX=0;entryY=0.5;entryDx=0;entryDy=0;" edge="1" parent="1" source="UCniVklKE88xbIbKEdX8-82" target="UCniVklKE88xbIbKEdX8-151">
          <mxGeometry width="100" height="100" relative="1" as="geometry">
            <mxPoint x="915" y="71" as="sourcePoint" />
            <mxPoint x="1094" y="139" as="targetPoint" />
            <Array as="points">
              <mxPoint x="828" y="301" />
            </Array>
          </mxGeometry>
        </mxCell>
      </root>
    </mxGraphModel>
  </diagram>
</mxfile>
